<svg width="115" height="100" viewBox="0 0 115 100" fill="none" xmlns="http://www.w3.org/2000/svg">
<path d="M8 35.8315H38.8333V97.4982H2.5V41.3315C2.5 38.294 4.96243 35.8315 8 35.8315Z" stroke="white" stroke-width="5"/>
<path d="M44.667 2.5H70.0003C73.0379 2.5 75.5003 4.96243 75.5003 8V97.5H39.167V8C39.167 4.96243 41.6294 2.5 44.667 2.5Z" stroke="white" stroke-width="5"/>
<path d="M75.8342 49.1648H106.668C109.705 49.1648 112.168 51.6272 112.168 54.6648V97.4981H75.8342V49.1648Z" stroke="white" stroke-width="5"/>
<path d="M56.5065 27.7755V13.5755L57.4315 14.2755L53.9815 16.1005L53.2565 13.7505L57.9315 11.2505H59.2315V27.7755H56.5065ZM53.7315 29.0005V26.4005H62.0815V29.0005H53.7315Z" fill="white"/>
<path d="M94.3239 73.2495C93.0906 73.2495 92.0156 72.9662 91.0989 72.3995C90.1989 71.8328 89.3489 70.8828 88.5489 69.5495L90.6489 68.2245C91.0656 68.8412 91.4739 69.3495 91.8739 69.7495C92.2906 70.1328 92.7156 70.4162 93.1489 70.5995C93.5822 70.7828 94.0406 70.8745 94.5239 70.8745C95.1072 70.8745 95.6489 70.7328 96.1489 70.4495C96.6489 70.1495 97.0489 69.7412 97.3489 69.2245C97.6489 68.7078 97.7989 68.1245 97.7989 67.4745C97.7989 66.8245 97.6822 66.2745 97.4489 65.8245C97.2156 65.3578 96.8739 65.0078 96.4239 64.7745C95.9739 64.5245 95.4406 64.3995 94.8239 64.3995C94.5406 64.3995 94.2406 64.4328 93.9239 64.4995C93.6239 64.5495 93.2989 64.6328 92.9489 64.7495C92.5989 64.8495 92.2156 64.9828 91.7989 65.1495L91.0489 63.1745L96.4489 57.2245L96.9739 57.9995H89.5239V55.4995H99.5489L100.049 56.4995L94.3239 62.8495L93.6989 62.1995C93.8322 62.1328 94.0489 62.0745 94.3489 62.0245C94.6656 61.9578 94.9239 61.9245 95.1239 61.9245C95.8572 61.9245 96.5406 62.0662 97.1739 62.3495C97.8239 62.6162 98.3822 62.9995 98.8489 63.4995C99.3322 63.9828 99.7072 64.5578 99.9739 65.2245C100.257 65.8745 100.399 66.5745 100.399 67.3245C100.399 68.4578 100.124 69.4745 99.5739 70.3745C99.0406 71.2578 98.3156 71.9578 97.3989 72.4745C96.4822 72.9912 95.4572 73.2495 94.3239 73.2495Z" fill="white"/>
<path d="M16.8121 62.3328L15.9871 60.2828L21.3371 54.2578C21.6205 53.9578 21.9121 53.6161 22.2121 53.2328C22.5288 52.8328 22.8288 52.4244 23.1121 52.0078C23.3955 51.5911 23.6205 51.1828 23.7871 50.7828C23.9705 50.3661 24.0621 49.9744 24.0621 49.6078C24.0621 49.0744 23.9538 48.6244 23.7371 48.2578C23.5371 47.8744 23.2371 47.5828 22.8371 47.3828C22.4538 47.1828 21.9871 47.0828 21.4371 47.0828C20.9538 47.0828 20.4788 47.2244 20.0121 47.5078C19.5455 47.7911 19.1205 48.1911 18.7371 48.7078C18.3538 49.2244 18.0538 49.8244 17.8371 50.5078L15.7621 49.2078C16.0455 48.2411 16.4705 47.4161 17.0371 46.7328C17.6205 46.0328 18.3121 45.4994 19.1121 45.1328C19.9288 44.7661 20.8121 44.5828 21.7621 44.5828C22.7455 44.5828 23.6205 44.7911 24.3871 45.2078C25.1538 45.6078 25.7538 46.1744 26.1871 46.9078C26.6205 47.6244 26.8371 48.4578 26.8371 49.4078C26.8371 49.7911 26.7955 50.1828 26.7121 50.5828C26.6288 50.9828 26.4955 51.3994 26.3121 51.8328C26.1288 52.2494 25.8955 52.6911 25.6121 53.1578C25.3288 53.6078 24.9871 54.0828 24.5871 54.5828C24.2038 55.0828 23.7621 55.6078 23.2621 56.1578L19.2871 60.4828L18.7871 59.7328H27.3871V62.3328H16.8121Z" fill="white"/>
</svg>
