<svg width="93" height="100" viewBox="0 0 93 100" fill="none" xmlns="http://www.w3.org/2000/svg">
<path fill-rule="evenodd" clip-rule="evenodd" d="M39.1346 94.4506L64.1594 69.5312C77.9803 55.7686 78.0275 33.4078 64.2649 19.5869C50.5022 5.76611 28.1414 5.7189 14.3206 19.4815C0.499746 33.2441 0.452547 55.6049 14.2152 69.4258L39.1346 94.4506ZM66.9283 72.3117C82.2847 57.02 82.3372 32.1746 67.0454 16.8181C51.7536 1.46163 26.9083 1.40919 11.5518 16.701C-3.80472 31.9928 -3.85717 56.8381 11.4346 72.1946L39.1229 100L66.9283 72.3117Z" fill="white"/>
<path d="M82.8737 19.62C83.426 19.62 83.8737 19.1723 83.8737 18.62V12.445C83.8737 11.8927 84.3214 11.445 84.8737 11.445H91.0487C91.601 11.445 92.0487 10.9973 92.0487 10.445V9.175C92.0487 8.62272 91.601 8.175 91.0487 8.175H84.8737C84.3214 8.175 83.8737 7.72729 83.8737 7.175V1C83.8737 0.447716 83.426 0 82.8737 0H81.6037C81.0514 0 80.6037 0.447715 80.6037 1V7.175C80.6037 7.72729 80.156 8.175 79.6037 8.175H73.4287C72.8764 8.175 72.4287 8.62272 72.4287 9.175V10.445C72.4287 10.9973 72.8764 11.445 73.4287 11.445H79.6037C80.156 11.445 80.6037 11.8927 80.6037 12.445V18.62C80.6037 19.1723 81.0514 19.62 81.6037 19.62H82.8737Z" fill="white"/>
<path d="M38.6823 19.6201C25.6841 19.6201 15.1383 30.1659 15.1383 43.1641C15.1383 56.1624 25.6841 66.7081 38.6823 66.7081C51.6806 66.7081 62.2263 56.1624 62.2263 43.1641C62.2263 30.1659 51.6806 19.6201 38.6823 19.6201Z" stroke="white" stroke-width="5" stroke-miterlimit="10"/>
<path d="M49.7339 34.4062L38.1492 47.7329L29.2648 40.0098" stroke="white" stroke-width="5" stroke-linecap="round" stroke-linejoin="round"/>
</svg>
