<svg width="1692" height="361" viewBox="0 0 1692 361" fill="none" xmlns="http://www.w3.org/2000/svg">
<g clip-path="url(#clip0_1932_14)">
<path d="M459.604 111V128.6H424.204C410.737 128.6 404.004 134.067 404.004 145C404.004 150.867 406.937 155.867 412.804 160C418.804 164 426.871 167.867 437.004 171.6C441.537 173.333 445.404 175.133 448.604 177C451.804 178.733 455.004 181.067 458.204 184C461.404 186.933 463.804 190.733 465.404 195.4C467.004 199.933 467.804 205.2 467.804 211.2C467.804 217.867 466.404 223.867 463.604 229.2C460.804 234.4 457.204 238.533 452.804 241.6C448.404 244.533 443.871 246.8 439.204 248.4C434.671 249.867 430.204 250.667 425.804 250.8C423.937 250.933 421.271 251 417.804 251H386.604V233.4H417.204C426.271 233.4 433.671 231.533 439.404 227.8C445.137 223.933 448.004 218.333 448.004 211C448.004 207.4 447.204 204.267 445.604 201.6C444.004 198.8 441.671 196.4 438.604 194.4C435.671 192.4 432.604 190.667 429.404 189.2C426.337 187.733 422.604 186.2 418.204 184.6C417.004 184.2 416.071 183.867 415.404 183.6C394.471 175.6 384.004 162.533 384.004 144.4C384.004 133.2 387.604 124.867 394.804 119.4C402.004 113.8 411.404 111 423.004 111H459.604ZM487.785 296.6V203C487.785 196.067 489.052 189.533 491.585 183.4C494.118 177.267 497.585 172 501.985 167.6C506.385 163.067 511.585 159.533 517.585 157C523.585 154.333 529.985 153 536.785 153C543.585 153 549.918 154.333 555.785 157C561.785 159.533 566.985 163.067 571.385 167.6C575.918 172.133 579.452 177.467 581.985 183.6C584.518 189.6 585.785 196.067 585.785 203C585.785 209.933 584.518 216.467 581.985 222.6C579.585 228.6 576.185 233.867 571.785 238.4C567.385 242.933 562.185 246.533 556.185 249.2C550.185 251.733 543.718 253 536.785 253C528.252 253 520.318 251 512.985 247V229C519.518 233.8 527.252 236.2 536.185 236.2C540.985 236.2 545.318 235.4 549.185 233.8C553.185 232.067 556.518 229.733 559.185 226.8C561.985 223.867 564.118 220.4 565.585 216.4C567.052 212.267 567.785 207.8 567.785 203C567.785 198.2 567.052 193.8 565.585 189.8C564.118 185.667 562.052 182.133 559.385 179.2C556.718 176.267 553.452 174 549.585 172.4C545.852 170.667 541.585 169.8 536.785 169.8C532.118 169.8 527.852 170.6 523.985 172.2C520.252 173.8 516.985 176.067 514.185 179C511.518 181.933 509.452 185.467 507.985 189.6C506.518 193.6 505.785 198.067 505.785 203V296.6H487.785ZM660.13 194.6V212.6C655.064 208.733 648.864 206.8 641.53 206.8C635.264 206.8 630.397 208.067 626.93 210.6C623.464 213 621.73 216.467 621.73 221C621.73 229.8 628.264 234.2 641.33 234.2H667.73V196C667.73 179.867 659.864 171.8 644.13 171.8H612.13V155H645.13C658.064 155 667.997 158.2 674.93 164.6C681.864 171 685.33 180.2 685.33 192.2V251H640.73C629.397 251 620.397 248.467 613.73 243.4C607.064 238.333 603.73 230.933 603.73 221.2C603.73 211.467 607.264 204.067 614.33 199C621.397 193.933 630.264 191.4 640.93 191.4C646.93 191.4 653.33 192.467 660.13 194.6ZM772.916 230L784.916 241.8C775.716 249.267 765.183 253 753.316 253C738.516 253 726.65 248.267 717.716 238.8C708.783 229.2 704.316 217.267 704.316 203C704.316 189 708.983 177.2 718.316 167.6C727.783 157.867 739.45 153 753.316 153C765.183 153 775.716 156.733 784.916 164.2L773.116 176.2C767.516 171.933 760.916 169.8 753.316 169.8C744.116 169.8 736.783 172.867 731.316 179C725.983 185 723.316 193 723.316 203C723.316 213 725.983 221.067 731.316 227.2C736.783 233.2 744.116 236.2 753.316 236.2C761.05 236.2 767.583 234.133 772.916 230ZM848.848 153C871.514 153.933 882.848 163.333 882.848 181.2C882.848 203.467 868.248 214.6 839.048 214.6H830.848V199.2H840.448C849.381 199.2 855.581 197.867 859.048 195.2C862.514 192.4 864.248 187.8 864.248 181.4C864.248 177.267 862.714 174.2 859.648 172.2C856.581 170.067 852.648 169 847.848 169C838.381 169 830.914 172.333 825.448 179C820.114 185.667 817.448 193.667 817.448 203C817.448 212.867 820.314 220.867 826.048 227C831.914 233.133 839.514 236.2 848.848 236.2C857.248 236.2 864.114 234.133 869.448 230L881.448 241.8C872.248 249.267 861.381 253 848.848 253C833.648 253 821.514 248.533 812.448 239.6C803.381 230.667 798.848 219.133 798.848 205C798.848 189.267 803.314 176.533 812.248 166.8C821.181 157.067 833.381 152.467 848.848 153ZM895.824 128.6V111H983.824V128.6H949.224V251H930.424V128.6H895.824ZM1026.87 251H1009.27V171.8H992.871L1000.87 155H1026.87V251ZM1008.47 135C1006.74 132.733 1005.87 130.267 1005.87 127.6C1005.87 124.933 1006.74 122.533 1008.47 120.4C1010.2 118.133 1012.87 117 1016.47 117C1020.07 117 1022.74 118.133 1024.47 120.4C1026.2 122.533 1027.07 124.933 1027.07 127.6C1027.07 130.267 1026.2 132.733 1024.47 135C1022.74 137.133 1020.07 138.2 1016.47 138.2C1012.87 138.2 1010.2 137.133 1008.47 135ZM1054.61 155H1142.81C1152.27 155 1159.81 156.8 1165.41 160.4C1171.14 164 1174.87 168.667 1176.61 174.4C1178.47 180.133 1179.41 187 1179.41 195V251H1161.81V195C1161.81 184.6 1158.67 177.733 1152.41 174.4C1149.21 172.667 1142.74 171.8 1133.01 171.8H1124.81V251H1107.21V171.8H1072.21V251H1054.61V155ZM1250.41 153C1273.08 153.933 1284.41 163.333 1284.41 181.2C1284.41 203.467 1269.81 214.6 1240.61 214.6H1232.41V199.2H1242.01C1250.94 199.2 1257.14 197.867 1260.61 195.2C1264.08 192.4 1265.81 187.8 1265.81 181.4C1265.81 177.267 1264.28 174.2 1261.21 172.2C1258.14 170.067 1254.21 169 1249.41 169C1239.94 169 1232.48 172.333 1227.01 179C1221.68 185.667 1219.01 193.667 1219.01 203C1219.01 212.867 1221.88 220.867 1227.61 227C1233.48 233.133 1241.08 236.2 1250.41 236.2C1258.81 236.2 1265.68 234.133 1271.01 230L1283.01 241.8C1273.81 249.267 1262.94 253 1250.41 253C1235.21 253 1223.08 248.533 1214.01 239.6C1204.94 230.667 1200.41 219.133 1200.41 205C1200.41 189.267 1204.88 176.533 1213.81 166.8C1222.74 157.067 1234.94 152.467 1250.41 153ZM1402.59 181C1402.45 203.267 1396.25 220.533 1383.99 232.8C1371.85 244.933 1355.05 251 1333.59 251H1306.39V111H1333.59C1355.05 111 1371.85 117.133 1383.99 129.4C1396.25 141.533 1402.45 158.733 1402.59 181ZM1335.99 233.4C1350.79 233.4 1362.12 228.533 1369.99 218.8C1377.99 208.933 1382.12 196.333 1382.39 181C1382.12 165.667 1377.99 153.133 1369.99 143.4C1362.12 133.533 1350.79 128.6 1335.99 128.6H1325.19V233.4H1335.99ZM1444.45 251H1426.65V163C1426.65 148.6 1431.25 136.333 1440.45 126.2C1449.79 116.067 1461.79 111 1476.45 111H1522.25V251H1503.45V128.6H1476.45C1466.72 128.6 1458.92 131.467 1453.05 137.2C1447.32 142.933 1444.45 152.067 1444.45 164.6V181.6C1451.92 173.733 1462.59 169.8 1476.45 169.8H1494.65V187.4H1476.45C1468.72 187.4 1462.39 188.333 1457.45 190.2C1452.65 192.067 1448.32 195.267 1444.45 199.8V251ZM1659.73 181.6C1659.6 174.133 1658.47 167.067 1656.33 160.4C1654.33 153.733 1651.33 147.933 1647.33 143C1643.47 137.933 1638.73 133.933 1633.13 131C1627.53 128.067 1621.2 126.6 1614.13 126.6C1607.07 126.6 1600.73 128.067 1595.13 131C1589.53 133.933 1584.73 137.933 1580.73 143C1576.87 147.933 1573.87 153.733 1571.73 160.4C1569.73 167.067 1568.67 174.133 1568.53 181.6C1568.67 189.2 1569.73 196.267 1571.73 202.8C1573.87 209.333 1576.87 215 1580.73 219.8C1584.73 224.6 1589.53 228.4 1595.13 231.2C1600.73 234 1607.07 235.4 1614.13 235.4C1621.2 235.4 1627.53 234 1633.13 231.2C1638.73 228.4 1643.47 224.6 1647.33 219.8C1651.33 215 1654.33 209.333 1656.33 202.8C1658.47 196.267 1659.6 189.2 1659.73 181.6ZM1548.33 181.6C1548.47 170.533 1550.13 160.533 1553.33 151.6C1556.53 142.667 1561 135.067 1566.73 128.8C1572.47 122.4 1579.33 117.533 1587.33 114.2C1595.33 110.733 1604.27 109 1614.13 109C1623.87 109 1632.73 110.733 1640.73 114.2C1648.87 117.533 1655.8 122.4 1661.53 128.8C1667.27 135.067 1671.73 142.667 1674.93 151.6C1678.13 160.533 1679.8 170.533 1679.93 181.6C1679.8 192.667 1678.13 202.6 1674.93 211.4C1671.87 220.2 1667.47 227.667 1661.73 233.8C1656 239.933 1649.07 244.667 1640.93 248C1632.93 251.333 1624 253 1614.13 253C1604.27 253 1595.27 251.333 1587.13 248C1579.13 244.667 1572.27 239.933 1566.53 233.8C1560.8 227.667 1556.33 220.2 1553.13 211.4C1550.07 202.6 1548.47 192.667 1548.33 181.6Z" fill="white"/>
<path fill-rule="evenodd" clip-rule="evenodd" d="M149.13 339.853L244.491 244.893C297.158 192.448 297.338 107.238 244.893 54.5712C192.448 1.90438 107.238 1.72451 54.5712 54.1695C1.90438 106.614 1.72451 191.824 54.1695 244.491L149.13 339.853ZM255.042 255.489C313.561 197.217 313.761 102.539 255.489 44.0201C197.217 -14.4986 102.539 -14.6985 44.0201 43.5737C-14.4986 101.846 -14.6985 196.524 43.5737 255.042L149.085 361L255.042 255.489Z" fill="url(#paint0_linear_1932_14)"/>
<path fill-rule="evenodd" clip-rule="evenodd" d="M50.2107 144.416C50.2107 90.7541 93.7446 47.2202 147.406 47.2202C201.067 47.2202 244.601 90.7541 244.601 144.416C244.601 198.077 201.067 241.611 147.406 241.611C93.7446 241.611 50.2107 198.077 50.2107 144.416ZM147.406 62.1733C102.003 62.1733 65.1639 99.0125 65.1639 144.416C65.1639 189.819 102.003 226.658 147.406 226.658C192.809 226.658 229.648 189.819 229.648 144.416C229.648 99.0125 192.809 62.1733 147.406 62.1733Z" fill="url(#paint1_linear_1932_14)"/>
<path fill-rule="evenodd" clip-rule="evenodd" d="M194.425 105.4C191.309 102.691 186.586 103.021 183.877 106.138L144.637 151.279L116.424 126.753C113.307 124.044 108.585 124.374 105.876 127.491C103.167 130.607 103.497 135.33 106.614 138.039L140.469 167.469C143.586 170.178 148.308 169.848 151.017 166.731L195.163 115.948C197.872 112.831 197.542 108.109 194.425 105.4Z" fill="url(#paint2_linear_1932_14)"/>
</g>
<defs>
<linearGradient id="paint0_linear_1932_14" x1="149.531" y1="0" x2="149.531" y2="361" gradientUnits="userSpaceOnUse">
<stop stop-color="white"/>
<stop offset="1" stop-color="white"/>
</linearGradient>
<linearGradient id="paint1_linear_1932_14" x1="149.531" y1="0" x2="149.531" y2="361" gradientUnits="userSpaceOnUse">
<stop stop-color="white"/>
<stop offset="1" stop-color="white"/>
</linearGradient>
<linearGradient id="paint2_linear_1932_14" x1="149.531" y1="0" x2="149.531" y2="361" gradientUnits="userSpaceOnUse">
<stop stop-color="white"/>
<stop offset="1" stop-color="white"/>
</linearGradient>
<clipPath id="clip0_1932_14">
<rect width="1692" height="361" fill="white"/>
</clipPath>
</defs>
</svg>
