<svg width="1402" height="283" viewBox="0 0 1402 283" fill="none" xmlns="http://www.w3.org/2000/svg">
<path d="M403.301 210.428C399.251 210.428 396.467 209.669 394.949 208.15C393.43 206.632 392.671 203.974 392.671 200.178C392.671 197.9 392.924 196.002 393.43 194.483C394.189 192.964 395.202 191.572 396.467 190.307L521.371 51.3558H412.792C410.008 51.3558 407.73 51.1027 405.959 50.5965C404.44 49.8372 403.301 48.6982 402.542 47.1797C401.782 45.408 401.403 43.1301 401.403 40.346C401.403 37.5619 401.782 35.4106 402.542 33.892C403.301 32.1203 404.44 30.9813 405.959 30.4751C407.73 29.7159 410.008 29.3362 412.792 29.3362H542.632C546.681 29.3362 549.465 30.0955 550.984 31.6141C552.503 33.1327 553.262 35.7902 553.262 39.5867C553.262 41.3584 553.009 42.877 552.503 44.1425C552.249 45.408 551.743 46.4204 550.984 47.1797L426.08 188.409H547.567C550.351 188.409 552.503 188.788 554.021 189.548C555.793 190.307 556.932 191.572 557.438 193.344C558.197 194.863 558.577 197.014 558.577 199.798C558.577 202.329 558.197 204.48 557.438 206.252C556.679 207.771 555.413 208.783 553.642 209.289C552.123 210.049 549.972 210.428 547.188 210.428H403.301Z" fill="white"/>
<path d="M686.278 211.188C672.358 211.188 659.576 208.91 647.934 204.354C636.544 199.798 626.673 193.344 618.321 184.992C610.222 176.64 603.894 166.769 599.339 155.379C594.783 143.99 592.505 131.335 592.505 117.415C592.505 100.963 596.428 86.1568 604.274 72.9957C612.12 59.8346 623.003 49.4575 636.924 41.8646C650.844 34.0185 666.789 30.0955 684.759 30.0955C696.402 30.0955 707.032 31.8672 716.65 35.4106C726.268 38.954 734.62 43.7628 741.707 49.8372C748.793 55.9116 754.235 62.8718 758.031 70.7178C762.081 78.5639 764.106 86.663 764.106 95.0153C764.106 107.417 761.195 115.896 755.374 120.452C749.806 124.754 742.972 126.906 734.873 126.906H615.284C614.778 140.32 618.068 151.836 625.155 161.454C632.495 171.071 641.606 178.538 652.489 183.853C663.626 188.915 674.762 191.446 685.898 191.446C693.238 191.446 699.566 191.066 704.881 190.307C710.449 189.548 715.131 188.535 718.928 187.27C722.977 185.751 726.394 184.359 729.178 183.094C731.962 181.575 734.493 180.183 736.771 178.917C739.049 177.399 741.2 176.26 743.225 175.501C744.491 174.994 745.883 174.868 747.401 175.121C749.173 175.121 750.438 175.754 751.198 177.019C752.463 178.791 753.349 180.436 753.855 181.955C754.361 183.22 754.615 184.739 754.615 186.51C754.615 188.788 751.577 191.952 745.503 196.002C739.429 199.798 731.203 203.215 720.826 206.252C710.449 209.542 698.933 211.188 686.278 211.188ZM615.284 108.683H728.419C733.481 108.683 737.404 108.176 740.188 107.164C742.972 105.899 744.364 102.102 744.364 95.7746C744.364 87.4223 741.707 79.8294 736.391 72.9957C731.329 65.909 724.369 60.2142 715.511 55.9116C706.652 51.6089 696.528 49.4575 685.139 49.4575C672.484 49.4575 660.715 51.9885 649.832 57.0505C639.202 62.1125 630.723 69.1992 624.395 78.3108C618.068 87.1692 615.031 97.2932 615.284 108.683Z" fill="white"/>
<path d="M819.911 210.049C817.38 210.049 815.355 209.669 813.837 208.91C812.318 208.15 811.179 207.011 810.42 205.493C809.914 203.721 809.661 201.443 809.661 198.659V39.207C809.661 36.6761 809.914 34.7778 810.42 33.5123C811.179 31.9937 812.318 30.9813 813.837 30.4751C815.608 29.7159 817.76 29.3362 820.291 29.3362C822.062 29.3362 823.581 29.5893 824.846 30.0955C826.112 30.3486 827.124 30.8548 827.884 31.6141C828.643 32.3734 829.149 33.3858 829.402 34.6513C829.908 35.9168 830.161 37.4354 830.161 39.207V61.6063C833.452 57.3036 837.122 53.254 841.171 49.4575C845.221 45.408 849.65 41.8646 854.459 38.8274C859.521 35.5371 864.963 33.0061 870.784 31.2344C876.858 29.4628 883.565 28.5769 890.905 28.5769C901.788 28.5769 911.786 30.4752 920.897 34.2716C930.262 37.815 938.361 43.1301 945.195 50.2168C952.028 57.0505 957.343 65.5293 961.14 75.6533C964.936 85.5241 966.835 96.9135 966.835 109.822V199.039C966.835 201.823 966.455 204.101 965.696 205.872C965.19 207.391 964.177 208.403 962.659 208.91C961.14 209.669 958.989 210.049 956.205 210.049C953.42 210.049 951.143 209.669 949.371 208.91C947.852 208.15 946.713 207.011 945.954 205.493C945.448 203.721 945.195 201.443 945.195 198.659V109.442C945.195 97.0401 943.17 86.2834 939.12 77.1718C935.071 68.0603 928.996 60.9735 920.897 55.9116C912.798 50.8496 902.548 48.3186 890.146 48.3186C877.997 48.3186 867.494 50.8496 858.635 55.9116C849.777 60.9735 842.943 68.0603 838.134 77.1718C833.325 86.2834 830.921 97.0401 830.921 109.442V199.039C830.921 201.823 830.541 204.101 829.782 205.872C829.276 207.391 828.137 208.403 826.365 208.91C824.846 209.669 822.695 210.049 819.911 210.049Z" fill="white"/>
<path d="M1093.15 282.561C1084.04 282.561 1075.68 281.549 1068.09 279.524C1060.5 277.753 1053.92 275.348 1048.35 272.311C1042.78 269.274 1038.48 265.983 1035.44 262.44C1032.4 259.15 1030.89 256.113 1030.89 253.328C1030.89 251.557 1031.01 250.291 1031.27 249.532C1031.77 248.773 1032.4 247.887 1033.16 246.874C1035.19 244.85 1036.58 243.584 1037.34 243.078C1038.35 242.572 1039.87 242.319 1041.9 242.319C1043.92 242.319 1046.07 243.458 1048.35 245.736C1050.88 248.013 1054.04 250.544 1057.84 253.328C1061.89 256.366 1066.83 259.023 1072.65 261.301C1078.47 263.579 1085.68 264.718 1094.29 264.718C1103.9 264.718 1112.51 263.199 1120.1 260.162C1127.95 257.378 1134.66 253.075 1140.22 247.254C1145.79 241.433 1149.97 234.346 1152.75 225.994C1155.79 217.895 1157.31 208.53 1157.31 197.9L1156.55 39.5867C1156.55 35.5371 1157.43 32.753 1159.21 31.2344C1160.98 29.7159 1163.89 28.9566 1167.94 28.9566C1170.47 28.9566 1172.37 29.3362 1173.63 30.0955C1175.15 30.6017 1176.16 31.6141 1176.67 33.1327C1177.43 34.6513 1177.81 36.8026 1177.81 39.5867V200.557C1177.81 213.465 1175.78 224.981 1171.73 235.105C1167.94 245.229 1162.37 253.835 1155.03 260.921C1147.69 268.008 1138.83 273.323 1128.45 276.867C1118.08 280.663 1106.31 282.561 1093.15 282.561ZM1094.67 206.632C1082.01 206.632 1070.5 204.607 1060.12 200.557C1049.99 196.255 1041.14 190.18 1033.54 182.334C1026.2 174.488 1020.51 165.25 1016.46 154.62C1012.41 143.737 1010.38 131.715 1010.38 118.553C1010.38 105.139 1012.41 93.1171 1016.46 82.4869C1020.51 71.6037 1026.2 62.239 1033.54 54.393C1040.88 46.5469 1049.61 40.5991 1059.74 36.5495C1070.12 32.2468 1081.51 30.0955 1093.91 30.0955C1105.3 30.0955 1115.8 32.2468 1125.42 36.5495C1135.29 40.5991 1143.77 46.5469 1150.85 54.393C1157.94 62.239 1163.38 71.6037 1167.18 82.4869C1171.23 93.1171 1173.25 105.013 1173.25 118.174C1173.25 135.891 1169.84 151.456 1163 164.871C1156.17 178.032 1146.8 188.282 1134.91 195.622C1123.27 202.962 1109.85 206.632 1094.67 206.632ZM1093.91 187.27C1106.06 187.27 1116.81 184.359 1126.18 178.538C1135.79 172.717 1143.39 164.617 1148.96 154.24C1154.52 143.61 1157.31 131.335 1157.31 117.415C1157.31 103.747 1154.52 91.8516 1148.96 81.7276C1143.39 71.3506 1135.79 63.378 1126.18 57.8098C1116.56 51.9885 1105.68 49.0779 1093.53 49.0779C1081.13 49.0779 1070.24 51.9885 1060.88 57.8098C1051.51 63.378 1044.17 71.3506 1038.86 81.7276C1033.8 91.8516 1031.27 103.874 1031.27 117.794C1031.27 131.715 1033.92 143.863 1039.24 154.24C1044.55 164.617 1051.89 172.717 1061.26 178.538C1070.62 184.359 1081.51 187.27 1093.91 187.27Z" fill="white"/>
<path d="M1312.02 211.947C1299.37 211.947 1287.47 209.542 1276.34 204.734C1265.2 199.925 1255.33 193.344 1246.72 184.992C1238.37 176.64 1231.79 166.895 1226.98 155.759C1222.17 144.623 1219.77 132.727 1219.77 120.072C1219.77 107.164 1222.05 95.2684 1226.6 84.3852C1231.41 73.2488 1237.99 63.5045 1246.34 55.1523C1254.95 46.5469 1264.69 39.9664 1275.58 35.4106C1286.71 30.6017 1298.61 28.1973 1311.26 28.1973C1328.22 28.1973 1343.53 32.2468 1357.2 40.346C1370.87 48.1921 1381.75 59.0753 1389.85 72.9957C1397.95 86.663 1402 102.229 1402 119.692C1402 132.854 1399.6 145.002 1394.79 156.139C1390.23 167.275 1383.78 177.019 1375.42 185.372C1367.33 193.724 1357.83 200.304 1346.95 205.113C1336.07 209.669 1324.43 211.947 1312.02 211.947ZM1311.26 191.446C1324.17 191.446 1335.81 188.282 1346.19 181.955C1356.82 175.374 1365.17 166.642 1371.25 155.759C1377.58 144.623 1380.74 132.347 1380.74 118.933C1380.74 105.266 1377.7 93.1171 1371.63 82.4869C1365.55 71.8568 1357.2 63.6311 1346.57 57.8098C1336.19 51.7354 1324.3 48.6982 1310.88 48.6982C1297.72 48.6982 1285.83 51.862 1275.2 58.1894C1264.82 64.2638 1256.47 72.6161 1250.14 83.2462C1244.07 93.8764 1241.03 105.899 1241.03 119.313C1241.03 132.98 1244.07 145.255 1250.14 156.139C1256.47 167.022 1264.95 175.627 1275.58 181.955C1286.21 188.282 1298.1 191.446 1311.26 191.446Z" fill="white"/>
<path d="M167.835 143.114C180.03 143.114 189.924 133.222 189.924 121.025C189.924 108.828 180.03 98.936 167.835 98.936C155.638 98.936 145.746 108.828 145.746 121.025C145.746 133.222 155.638 143.114 167.835 143.114Z" fill="#119195"/>
<path d="M115.879 172.99L133.604 155.272C124.461 146.131 119.426 133.97 119.426 121.041C119.426 108.203 124.399 96.1045 133.431 86.9828L115.62 69.3495C101.911 83.2023 94.3623 101.553 94.3623 121.041C94.3623 140.665 102.002 159.114 115.879 172.99Z" fill="white"/>
<path d="M81.2816 207.963L98.9693 190.202C80.427 171.746 70.2144 147.171 70.2144 121.011C70.2144 95.0346 80.3042 70.5843 98.6192 52.1697L80.8452 34.4954C57.8257 57.6413 45.155 88.3644 45.155 121.011C45.155 153.884 57.9862 184.768 81.2816 207.963Z" fill="white"/>
<path d="M13.8753 187.941C22.7664 208.371 35.4492 226.587 51.5758 242.081L68.9449 224.013C40.6509 196.826 25.0652 160.25 25.0652 121.025C25.0652 81.8124 40.6388 45.2497 68.9133 18.0692L51.5382 0C35.4249 15.4982 22.747 33.7096 13.8619 54.1275C4.66563 75.2771 0 97.7859 0 121.025C0 144.272 4.67169 166.784 13.8753 187.941Z" fill="white"/>
<path d="M167.772 143.16C155.576 143.16 145.683 133.268 145.683 121.072C145.683 108.875 155.576 98.9826 167.772 98.9826C179.968 98.9826 189.861 108.875 189.861 121.072C189.861 133.268 179.968 143.16 167.772 143.16Z" fill="white"/>
<path d="M219.727 173.037L202.003 155.318C211.145 146.177 216.18 134.016 216.18 121.088C216.18 108.25 211.207 96.1511 202.175 87.0294L219.986 69.3961C233.695 83.2489 241.244 101.599 241.244 121.088C241.244 140.712 233.604 159.161 219.727 173.037Z" fill="white"/>
<path d="M254.325 208.01L236.637 190.248C255.179 171.792 265.392 147.218 265.392 121.057C265.392 95.0812 255.302 70.6309 236.987 52.2163L254.761 34.542C277.781 57.688 290.451 88.411 290.451 121.057C290.451 153.931 277.62 184.814 254.325 208.01Z" fill="white"/>
<path d="M321.731 187.988C312.84 208.418 300.157 226.634 284.031 242.127L266.662 224.059C294.955 196.873 310.541 160.297 310.541 121.072C310.541 81.859 294.968 45.2963 266.693 18.1159L284.068 0.0466086C300.181 15.5448 312.859 33.7562 321.744 54.1741C330.941 75.3237 335.606 97.8325 335.606 121.072C335.606 144.318 330.935 166.831 321.731 187.988Z" fill="white"/>
</svg>
